<mxfile host="www.draw.io" modified="2019-12-05T21:34:52.511Z" agent="Mozilla/5.0 (Windows NT 10.0; Win64; x64; rv:71.0) Gecko/20100101 Firefox/71.0" etag="CmK7PRwcykZ8t4MRoERF" version="12.3.7" type="github" pages="1">
  <diagram id="NvCQgJdSBM-2ycp9VXMA" name="Page-1">
    <mxGraphModel dx="1097" dy="671" grid="1" gridSize="10" guides="1" tooltips="1" connect="1" arrows="1" fold="1" page="1" pageScale="1" pageWidth="1400" pageHeight="850" math="0" shadow="0">
      <root>
        <mxCell id="0"/>
        <mxCell id="1" parent="0"/>
        <mxCell id="OlXNlt9vMctowWqhXaBs-2" value="Current GIS Licensing Process at UCLA - Nov 2019 " style="text;html=1;align=center;verticalAlign=middle;whiteSpace=wrap;rounded=0;fontSize=25;fillColor=#ffffff;" parent="1" vertex="1">
          <mxGeometry x="280" y="50" width="840" height="20" as="geometry"/>
        </mxCell>
        <mxCell id="OlXNlt9vMctowWqhXaBs-3" value="Software Central&#xa;(Office of Information Technology)" style="rounded=1;fillColor=#10739E;strokeColor=none;shadow=1;gradientColor=none;fontStyle=1;fontColor=#FFFFFF;fontSize=14;verticalAlign=middle;whiteSpace=wrap;" parent="1" vertex="1">
          <mxGeometry x="390.25" y="502" width="200" height="60" as="geometry"/>
        </mxCell>
        <mxCell id="OlXNlt9vMctowWqhXaBs-35" style="edgeStyle=orthogonalEdgeStyle;rounded=0;orthogonalLoop=1;jettySize=auto;html=1;exitX=0.5;exitY=1;exitDx=0;exitDy=0;entryX=0.5;entryY=0;entryDx=0;entryDy=0;fontSize=12;fontStyle=1;strokeColor=#23445D;strokeWidth=4;endFill=1;endArrow=block;" parent="1" source="OlXNlt9vMctowWqhXaBs-4" target="OlXNlt9vMctowWqhXaBs-16" edge="1">
          <mxGeometry relative="1" as="geometry"/>
        </mxCell>
        <mxCell id="OlXNlt9vMctowWqhXaBs-4" value="ArcGIS Pro" style="ellipse;whiteSpace=wrap;html=1;rounded=0;shadow=0;align=center;fillColor=#d5e8d4;strokeColor=#82b366;fontStyle=1" parent="1" vertex="1">
          <mxGeometry x="843.25" y="372" width="120" height="80" as="geometry"/>
        </mxCell>
        <mxCell id="OlXNlt9vMctowWqhXaBs-5" value="ArcGIS Desktop" style="ellipse;whiteSpace=wrap;html=1;rounded=0;shadow=0;align=center;fillColor=#fff2cc;strokeColor=#d6b656;fontStyle=1" parent="1" vertex="1">
          <mxGeometry x="430.25" y="372" width="120" height="80" as="geometry"/>
        </mxCell>
        <mxCell id="OlXNlt9vMctowWqhXaBs-36" style="rounded=0;orthogonalLoop=1;jettySize=auto;html=1;fontSize=12;fontStyle=1;strokeColor=#23445D;strokeWidth=4;endFill=1;endArrow=block;" parent="1" source="OlXNlt9vMctowWqhXaBs-6" target="OlXNlt9vMctowWqhXaBs-17" edge="1">
          <mxGeometry relative="1" as="geometry"/>
        </mxCell>
        <mxCell id="OlXNlt9vMctowWqhXaBs-6" value="&lt;div&gt;ArcGIS Online&lt;/div&gt;" style="ellipse;whiteSpace=wrap;html=1;rounded=0;shadow=0;align=center;fillColor=#e1d5e7;strokeColor=#9673a6;fontStyle=1" parent="1" vertex="1">
          <mxGeometry x="640.25" y="372" width="120" height="80" as="geometry"/>
        </mxCell>
        <mxCell id="OlXNlt9vMctowWqhXaBs-54" value="" style="edgeStyle=none;rounded=0;orthogonalLoop=1;jettySize=auto;html=1;fontSize=12;fontStyle=1;strokeColor=#23445D;strokeWidth=4;endFill=0;endArrow=none;startArrow=classic;startFill=1;" parent="1" source="OlXNlt9vMctowWqhXaBs-7" target="OlXNlt9vMctowWqhXaBs-53" edge="1">
          <mxGeometry relative="1" as="geometry"/>
        </mxCell>
        <mxCell id="OlXNlt9vMctowWqhXaBs-7" value="What Type?" style="rounded=0;fillColor=#f5f5f5;strokeColor=#666666;shadow=1;fontStyle=1;fontColor=#333333;fontSize=19;" parent="1" vertex="1">
          <mxGeometry x="590" y="247" width="220" height="60" as="geometry"/>
        </mxCell>
        <mxCell id="OlXNlt9vMctowWqhXaBs-53" value="I want an ESRI License.." style="rounded=0;fillColor=#f5f5f5;strokeColor=#666666;shadow=1;fontStyle=1;fontColor=#333333;fontSize=19;" parent="1" vertex="1">
          <mxGeometry x="590" y="107" width="220" height="60" as="geometry"/>
        </mxCell>
        <mxCell id="OlXNlt9vMctowWqhXaBs-8" value="Department Recharge" style="rounded=0;fillColor=#E35D6A;strokeColor=#6F0000;shadow=1;fontStyle=1;fontSize=14;fontColor=#ffffff;whiteSpace=wrap;" parent="1" vertex="1">
          <mxGeometry x="425.25" y="682" width="130" height="60" as="geometry"/>
        </mxCell>
        <mxCell id="OlXNlt9vMctowWqhXaBs-16" value="Software Central FTP" style="rounded=1;fillColor=#10739E;strokeColor=none;shadow=1;gradientColor=none;fontStyle=1;fontColor=#FFFFFF;fontSize=14;verticalAlign=middle;whiteSpace=wrap;" parent="1" vertex="1">
          <mxGeometry x="831.75" y="502" width="143" height="60" as="geometry"/>
        </mxCell>
        <mxCell id="OlXNlt9vMctowWqhXaBs-17" value="UCLA ArcGIS Online:&#xa;ucla.maps.arcgis.com" style="rounded=1;fillColor=#10739E;strokeColor=none;shadow=1;gradientColor=none;fontStyle=1;fontColor=#FFFFFF;fontSize=14;verticalAlign=middle;whiteSpace=wrap;" parent="1" vertex="1">
          <mxGeometry x="613.25" y="502" width="173" height="60" as="geometry"/>
        </mxCell>
        <mxCell id="OlXNlt9vMctowWqhXaBs-22" value="" style="elbow=vertical;strokeWidth=4;endArrow=block;endFill=1;fontStyle=1;strokeColor=#23445D;fontSize=12;rounded=0;exitX=0.5;exitY=1;exitDx=0;exitDy=0;entryX=0.5;entryY=0;entryDx=0;entryDy=0;" parent="1" source="OlXNlt9vMctowWqhXaBs-5" target="OlXNlt9vMctowWqhXaBs-3" edge="1">
          <mxGeometry x="2.5" y="152" width="100" height="100" as="geometry">
            <mxPoint x="919.166666666667" y="502.3333333333335" as="sourcePoint"/>
            <mxPoint x="942.5" y="632" as="targetPoint"/>
            <mxPoint y="-30" as="offset"/>
          </mxGeometry>
        </mxCell>
        <mxCell id="OlXNlt9vMctowWqhXaBs-29" value="" style="elbow=vertical;strokeWidth=4;endArrow=block;endFill=1;fontStyle=1;strokeColor=#23445D;fontSize=12;rounded=0;exitX=0.5;exitY=1;exitDx=0;exitDy=0;entryX=1;entryY=0;entryDx=0;entryDy=0;" parent="1" source="OlXNlt9vMctowWqhXaBs-7" target="OlXNlt9vMctowWqhXaBs-5" edge="1">
          <mxGeometry x="-216.5" y="252" width="100" height="100" as="geometry">
            <mxPoint x="962.5" y="552" as="sourcePoint"/>
            <mxPoint x="929" y="572" as="targetPoint"/>
            <mxPoint x="18" y="-37" as="offset"/>
          </mxGeometry>
        </mxCell>
        <mxCell id="OlXNlt9vMctowWqhXaBs-30" value="" style="elbow=vertical;strokeWidth=4;endArrow=block;endFill=1;fontStyle=1;strokeColor=#23445D;fontSize=12;rounded=0;exitX=0.5;exitY=1;exitDx=0;exitDy=0;entryX=0.5;entryY=0;entryDx=0;entryDy=0;" parent="1" source="OlXNlt9vMctowWqhXaBs-7" target="OlXNlt9vMctowWqhXaBs-6" edge="1">
          <mxGeometry x="-206.5" y="262" width="100" height="100" as="geometry">
            <mxPoint x="972.5" y="562" as="sourcePoint"/>
            <mxPoint x="939" y="582" as="targetPoint"/>
            <mxPoint x="18" y="-37" as="offset"/>
          </mxGeometry>
        </mxCell>
        <mxCell id="OlXNlt9vMctowWqhXaBs-31" value="" style="elbow=vertical;strokeWidth=4;endArrow=block;endFill=1;fontStyle=1;strokeColor=#23445D;fontSize=12;rounded=0;exitX=0.5;exitY=1;exitDx=0;exitDy=0;entryX=0.5;entryY=0;entryDx=0;entryDy=0;" parent="1" source="OlXNlt9vMctowWqhXaBs-7" target="OlXNlt9vMctowWqhXaBs-4" edge="1">
          <mxGeometry x="-196.5" y="272" width="100" height="100" as="geometry">
            <mxPoint x="982.5" y="572" as="sourcePoint"/>
            <mxPoint x="949" y="592" as="targetPoint"/>
            <mxPoint x="18" y="-37" as="offset"/>
          </mxGeometry>
        </mxCell>
        <mxCell id="OlXNlt9vMctowWqhXaBs-38" value="" style="elbow=vertical;strokeWidth=4;endArrow=block;endFill=1;fontStyle=1;strokeColor=#23445D;fontSize=12;rounded=0;exitX=0.5;exitY=1;exitDx=0;exitDy=0;entryX=0.5;entryY=0;entryDx=0;entryDy=0;" parent="1" source="OlXNlt9vMctowWqhXaBs-3" target="OlXNlt9vMctowWqhXaBs-8" edge="1">
          <mxGeometry x="-216.5" y="252" width="100" height="100" as="geometry">
            <mxPoint x="483.5" y="472" as="sourcePoint"/>
            <mxPoint x="483.5" y="592" as="targetPoint"/>
            <mxPoint x="18" y="-37" as="offset"/>
          </mxGeometry>
        </mxCell>
        <mxCell id="OlXNlt9vMctowWqhXaBs-50" value="Log-in" style="rounded=0;fillColor=#E35D6A;strokeColor=#6F0000;shadow=1;fontStyle=1;fontSize=14;fontColor=#ffffff;" parent="1" vertex="1">
          <mxGeometry x="635.25" y="682" width="130" height="60" as="geometry"/>
        </mxCell>
        <mxCell id="OlXNlt9vMctowWqhXaBs-51" value="Download Software and provisioning file" style="rounded=0;fillColor=#E35D6A;strokeColor=#6F0000;shadow=1;fontStyle=1;fontSize=14;fontColor=#ffffff;whiteSpace=wrap;" parent="1" vertex="1">
          <mxGeometry x="838.25" y="682" width="130" height="60" as="geometry"/>
        </mxCell>
        <mxCell id="OlXNlt9vMctowWqhXaBs-52" value="" style="group" parent="1" vertex="1" connectable="0">
          <mxGeometry x="650" y="667" width="360" height="28" as="geometry"/>
        </mxCell>
        <mxCell id="OlXNlt9vMctowWqhXaBs-47" style="rounded=0;orthogonalLoop=1;jettySize=auto;html=1;fontSize=12;fontStyle=1;strokeColor=#23445D;strokeWidth=4;endFill=1;endArrow=block;exitX=0.5;exitY=1;exitDx=0;exitDy=0;entryX=0.5;entryY=0;entryDx=0;entryDy=0;" parent="OlXNlt9vMctowWqhXaBs-52" source="OlXNlt9vMctowWqhXaBs-17" target="OlXNlt9vMctowWqhXaBs-50" edge="1">
          <mxGeometry relative="1" as="geometry">
            <mxPoint x="60.58820702629623" y="-125.00192221185284" as="sourcePoint"/>
            <mxPoint x="50" y="145" as="targetPoint"/>
          </mxGeometry>
        </mxCell>
        <mxCell id="OlXNlt9vMctowWqhXaBs-48" style="rounded=0;orthogonalLoop=1;jettySize=auto;html=1;fontSize=12;fontStyle=1;strokeColor=#23445D;strokeWidth=4;endFill=1;endArrow=block;exitX=0.5;exitY=1;exitDx=0;exitDy=0;entryX=0.5;entryY=0;entryDx=0;entryDy=0;" parent="OlXNlt9vMctowWqhXaBs-52" source="OlXNlt9vMctowWqhXaBs-16" target="OlXNlt9vMctowWqhXaBs-51" edge="1">
          <mxGeometry relative="1" as="geometry">
            <mxPoint x="60.00000000000023" y="55" as="sourcePoint"/>
            <mxPoint x="300" y="145" as="targetPoint"/>
          </mxGeometry>
        </mxCell>
        <mxCell id="OlXNlt9vMctowWqhXaBs-32" value="Single Sign On (Shibboleth)" style="rounded=0;html=1;strokeColor=#999999;whiteSpace=wrap;" parent="1" vertex="1">
          <mxGeometry x="623" y="590" width="360" height="40" as="geometry"/>
        </mxCell>
      </root>
    </mxGraphModel>
  </diagram>
</mxfile>
